<svg width="48" height="48" viewBox="0 0 48 48" fill="none" xmlns="http://www.w3.org/2000/svg">
<g id="view_kanban">
<path id="Vector" d="M9.10749 42.299C8.18749 42.299 7.38982 41.9611 6.71449 41.2855C6.03882 40.6101 5.70099 39.8125 5.70099 38.8925V9.10746C5.70099 8.18413 6.03882 7.38363 6.71449 6.70596C7.38982 6.02796 8.18749 5.68896 9.10749 5.68896H38.8925C39.8158 5.68896 40.6163 6.02796 41.294 6.70596C41.972 7.38363 42.311 8.18413 42.311 9.10746V38.8925C42.311 39.8125 41.972 40.6101 41.294 41.2855C40.6163 41.9611 39.8158 42.299 38.8925 42.299H9.10749ZM9.10749 38.8925H38.8925V9.10746H9.10749V38.8925ZM15.495 13.898C15.0717 13.898 14.7183 14.0436 14.435 14.335C14.1517 14.6266 14.01 14.981 14.01 15.398V32.586C14.01 33.0123 14.1545 33.3696 14.4435 33.658C14.7328 33.946 15.0912 34.09 15.5185 34.09C15.9382 34.09 16.2917 33.946 16.579 33.658C16.8663 33.3696 17.01 33.0123 17.01 32.586V15.398C17.01 14.981 16.8633 14.6266 16.57 14.335C16.277 14.0436 15.9187 13.898 15.495 13.898ZM32.4875 13.898C32.0638 13.898 31.7103 14.0436 31.427 14.335C31.1437 14.6266 31.002 14.981 31.002 15.398V28.585C31.002 29.0116 31.1467 29.3691 31.436 29.6575C31.725 29.9458 32.0833 30.09 32.511 30.09C32.9303 30.09 33.2837 29.9458 33.571 29.6575C33.8583 29.3691 34.002 29.0116 34.002 28.585V15.398C34.002 14.981 33.8555 14.6266 33.5625 14.335C33.2692 14.0436 32.9108 13.898 32.4875 13.898ZM23.991 13.898C23.5637 13.898 23.2083 14.0436 22.925 14.335C22.6417 14.6266 22.5 14.981 22.5 15.398V22.59C22.5 23.015 22.6447 23.3713 22.934 23.659C23.223 23.9463 23.5813 24.09 24.009 24.09C24.4363 24.09 24.7917 23.9463 25.075 23.659C25.3583 23.3713 25.5 23.015 25.5 22.59V15.398C25.5 14.981 25.3553 14.6266 25.066 14.335C24.777 14.0436 24.4187 13.898 23.991 13.898Z" fill="white"/>
</g>
</svg>
