<svg width="48" height="48" viewBox="0 0 48 48" fill="none" xmlns="http://www.w3.org/2000/svg">
<g id="track_changes">
<path id="Vector" d="M23.997 44.55C21.1607 44.55 18.492 44.0115 15.991 42.9345C13.4903 41.8571 11.3135 40.3921 9.4605 38.5395C7.60783 36.6865 6.14283 34.5086 5.0655 32.006C3.9885 29.5033 3.45 26.8336 3.45 23.997C3.45 21.1606 3.9885 18.492 5.0655 15.991C6.14283 13.4903 7.60783 11.3135 9.4605 9.46045C11.3135 7.60779 13.491 6.14278 15.993 5.06545C18.495 3.98845 21.164 3.44995 24 3.44995C24.4707 3.44995 24.8602 3.60429 25.1685 3.91295C25.4772 4.22129 25.6315 4.61078 25.6315 5.08145V20.0625C26.4048 20.3851 27.0387 20.8998 27.533 21.6065C28.0277 22.3131 28.275 23.1098 28.275 23.9965C28.275 25.1731 27.856 26.1803 27.018 27.018C26.18 27.856 25.1725 28.275 23.9955 28.275C22.8188 28.275 21.8128 27.856 20.9775 27.018C20.1425 26.1803 19.725 25.1731 19.725 23.9965C19.725 23.1098 19.9723 22.3131 20.467 21.6065C20.9613 20.8998 21.5952 20.3846 22.3685 20.061V15.0045C20.1938 15.3871 18.4002 16.4113 16.9875 18.077C15.5748 19.743 14.8685 21.7155 14.8685 23.9945C14.8685 26.5395 15.755 28.6986 17.528 30.472C19.3007 32.245 21.4575 33.1315 23.9985 33.1315C26.5395 33.1315 28.6968 32.245 30.4705 30.472C32.2445 28.6986 33.1315 26.5413 33.1315 24C33.1315 22.9333 32.9608 21.934 32.6195 21.002C32.2778 20.0696 31.8105 19.219 31.2175 18.45C30.9428 18.0846 30.8035 17.6695 30.7995 17.2045C30.7955 16.7391 30.9585 16.3415 31.2885 16.0115C31.6142 15.6858 32.0033 15.5313 32.456 15.548C32.9087 15.5646 33.2802 15.7515 33.5705 16.1085C34.4532 17.1991 35.1485 18.4038 35.6565 19.7225C36.1645 21.0411 36.4185 22.4678 36.4185 24.0025C36.4185 27.4551 35.2125 30.3856 32.8005 32.794C30.3882 35.2023 27.4552 36.4065 24.0015 36.4065C20.5475 36.4065 17.616 35.2023 15.207 32.794C12.798 30.3856 11.5935 27.4545 11.5935 24.0005C11.5935 20.8068 12.6193 18.0505 14.671 15.7315C16.723 13.4128 19.2888 12.0541 22.3685 11.6555V6.79895C17.9538 7.19728 14.243 9.03312 11.236 12.3065C8.22866 15.5795 6.725 19.4763 6.725 23.997C6.725 28.804 8.40383 32.8855 11.7615 36.2415C15.1195 39.5971 19.2 41.275 24.003 41.275C28.806 41.275 32.8855 39.5963 36.2415 36.239C39.5972 32.882 41.275 28.8023 41.275 24C41.275 21.8173 40.9083 19.768 40.175 17.852C39.4417 15.9363 38.4083 14.2205 37.075 12.7045C36.751 12.3311 36.5827 11.9116 36.57 11.446C36.5573 10.9806 36.713 10.5863 37.037 10.263C37.361 9.93895 37.7595 9.78728 38.2325 9.80795C38.7058 9.82862 39.0917 10.0176 39.39 10.375C41.006 12.215 42.27 14.2828 43.182 16.5785C44.094 18.8741 44.55 21.348 44.55 24C44.55 26.836 44.0115 29.505 42.9345 32.007C41.8572 34.509 40.3922 36.6865 38.5395 38.5395C36.6865 40.3921 34.5087 41.8571 32.006 42.9345C29.5033 44.0115 26.8337 44.55 23.997 44.55Z" fill="white"/>
</g>
</svg>
