<svg width="48" height="48" viewBox="0 0 48 48" fill="none" xmlns="http://www.w3.org/2000/svg">
<g id="assignment">
<path id="Vector" d="M9.10749 42.299C8.17082 42.299 7.36882 41.9655 6.70149 41.2985C6.03449 40.6311 5.70099 39.8291 5.70099 38.8925V9.10746C5.70099 8.16746 6.03449 7.3628 6.70149 6.69346C7.36882 6.0238 8.17082 5.68896 9.10749 5.68896H19.0585C19.2732 4.5223 19.8425 3.56396 20.7665 2.81396C21.6902 2.06396 22.768 1.68896 24 1.68896C25.232 1.68896 26.3098 2.06396 27.2335 2.81396C28.1575 3.56396 28.7268 4.5223 28.9415 5.68896H38.8925C39.8325 5.68896 40.6372 6.0238 41.3065 6.69346C41.9762 7.3628 42.311 8.16746 42.311 9.10746V38.8925C42.311 39.8291 41.9762 40.6311 41.3065 41.2985C40.6372 41.9655 39.8325 42.299 38.8925 42.299H9.10749ZM9.10749 38.8925H38.8925V9.10746H9.10749V38.8925ZM15.611 33.8925H26.1225C26.5498 33.8925 26.9073 33.7478 27.195 33.4585C27.4823 33.1695 27.626 32.8111 27.626 32.3835C27.626 31.9561 27.4823 31.6008 27.195 31.3175C26.9073 31.0341 26.5498 30.8925 26.1225 30.8925H15.611C15.1837 30.8925 14.8263 31.037 14.539 31.326C14.2513 31.6153 14.1075 31.9736 14.1075 32.401C14.1075 32.8286 14.2513 33.1841 14.539 33.4675C14.8263 33.7508 15.1837 33.8925 15.611 33.8925ZM15.611 25.5H32.389C32.8163 25.5 33.1737 25.3553 33.461 25.066C33.7487 24.777 33.8925 24.4186 33.8925 23.991C33.8925 23.5636 33.7487 23.2083 33.461 22.925C33.1737 22.6416 32.8163 22.5 32.389 22.5H15.611C15.1837 22.5 14.8263 22.6446 14.539 22.934C14.2513 23.223 14.1075 23.5813 14.1075 24.009C14.1075 24.4363 14.2513 24.7916 14.539 25.075C14.8263 25.3583 15.1837 25.5 15.611 25.5ZM15.611 17.1075H32.389C32.8163 17.1075 33.1737 16.963 33.461 16.674C33.7487 16.3846 33.8925 16.0263 33.8925 15.599C33.8925 15.1713 33.7487 14.8158 33.461 14.5325C33.1737 14.2491 32.8163 14.1075 32.389 14.1075H15.611C15.1837 14.1075 14.8263 14.2521 14.539 14.5415C14.2513 14.8305 14.1075 15.1888 14.1075 15.6165C14.1075 16.0438 14.2513 16.3991 14.539 16.6825C14.8263 16.9658 15.1837 17.1075 15.611 17.1075ZM24 8.22146C24.4943 8.22146 24.9215 8.04146 25.2815 7.68146C25.6415 7.32146 25.8215 6.8943 25.8215 6.39996C25.8215 5.90563 25.6415 5.47846 25.2815 5.11846C24.9215 4.75846 24.4943 4.57846 24 4.57846C23.5057 4.57846 23.0785 4.75846 22.7185 5.11846C22.3585 5.47846 22.1785 5.90563 22.1785 6.39996C22.1785 6.8943 22.3585 7.32146 22.7185 7.68146C23.0785 8.04146 23.5057 8.22146 24 8.22146Z" fill="white"/>
</g>
</svg>
