<svg width="24" height="24" viewBox="0 0 24 24" fill="none" xmlns="http://www.w3.org/2000/svg">
<g id="call">
<path id="Vector" d="M4.11902 3.34473H7.61902C7.75682 3.34473 7.86251 3.37575 7.95105 3.43262L8.03503 3.49805C8.12854 3.58614 8.20705 3.70059 8.2655 3.85156L8.31726 4.01465L8.9823 7.02832C9.00662 7.20089 9.0093 7.34747 8.99402 7.47168L8.97253 7.5918C8.94919 7.68996 8.90828 7.77513 8.84753 7.85156L8.78015 7.92578L8.77332 7.93164L6.25574 10.415L5.97644 10.6904L6.17664 11.0264C6.49665 11.5642 6.83151 12.0769 7.18152 12.5635L7.53699 13.042C8.01992 13.6716 8.55584 14.2704 9.14441 14.8379V14.8369C9.60351 15.3108 10.0779 15.7522 10.5682 16.1602L11.0682 16.5605C11.7434 17.0804 12.4488 17.5353 13.1844 17.9248L13.5155 18.0996L13.7762 17.832L16.1815 15.3643L16.1913 15.3535C16.331 15.202 16.4783 15.1119 16.6346 15.0654L16.6337 15.0645C16.7647 15.0256 16.8944 15.012 17.0253 15.0215L17.1571 15.0391L19.9774 15.6631C20.1431 15.7092 20.2749 15.7806 20.3817 15.875L20.4813 15.9775C20.5981 16.1186 20.6552 16.2764 20.6552 16.4707V19.8809C20.6552 20.0587 20.6137 20.2 20.5321 20.3193L20.4374 20.4316C20.2909 20.5766 20.1181 20.6494 19.8866 20.6494C18.1287 20.6494 16.3314 20.2535 14.4911 19.4502L14.1219 19.2842C12.2769 18.427 10.5525 17.2306 8.9491 15.6895L8.62976 15.376C7.0427 13.7889 5.79967 12.0798 4.89539 10.249L4.71863 9.88086C3.80159 7.90938 3.35046 5.99008 3.35046 4.11914C3.35048 3.94128 3.39174 3.79881 3.47351 3.67773L3.56921 3.56348C3.71327 3.41863 3.88502 3.34473 4.11902 3.34473ZM4.06628 4.5752C4.08948 5.1099 4.15827 5.66469 4.27136 6.23828L4.39929 6.81836C4.59086 7.60639 4.89058 8.47618 5.2948 9.4248L5.58386 10.1035L6.1073 9.58301L8.12683 7.5752L8.32019 7.38281L8.26257 7.11621L7.69421 4.44922L7.60925 4.05371H4.04382L4.06628 4.5752ZM19.9462 16.377L19.5477 16.2949L17.0624 15.7803L16.7909 15.7246L16.5985 15.9248L14.6356 17.9824L14.1542 18.4863L14.787 18.7812C15.3082 19.0237 15.8622 19.2317 16.4481 19.4062L17.0448 19.5693C17.8555 19.7725 18.6477 19.8945 19.4208 19.9336L19.9462 19.96V16.377Z" fill="white" stroke="white"/>
</g>
</svg>
