<svg width="24" height="24" viewBox="0 0 24 24" fill="none" xmlns="http://www.w3.org/2000/svg">
<g id="location_on">
<path id="Vector" d="M11.9999 2.34473C13.8977 2.34473 15.5795 2.9636 17.0614 4.21777L17.3553 4.47754C18.8789 5.87913 19.6552 7.7626 19.6552 10.1826C19.6551 11.0448 19.4891 11.9066 19.1512 12.7705L18.996 13.1406C18.5992 14.0274 18.1142 14.8817 17.5399 15.7031L17.288 16.0527C16.6829 16.8721 16.0324 17.6437 15.3358 18.3672L15.035 18.6738C14.212 19.4974 13.4447 20.2259 12.7333 20.8594L12.7274 20.8643L12.7225 20.8691C12.6547 20.9333 12.5789 20.9844 12.494 21.0225L12.4052 21.0566C12.2587 21.1041 12.1215 21.126 11.9921 21.126C11.8951 21.126 11.7957 21.1135 11.6932 21.0879L11.5897 21.0576C11.474 21.0191 11.3759 20.959 11.2899 20.875L11.2811 20.8662L11.2714 20.8584L10.7255 20.3662C10.3544 20.0258 9.97017 19.6614 9.57214 19.2734L8.96472 18.6738C8.25534 17.9641 7.59149 17.2068 6.97351 16.4014L6.71179 16.0527C6.11219 15.2408 5.60197 14.3966 5.18152 13.5195L5.00671 13.1416C4.56634 12.1534 4.35052 11.1682 4.35046 10.1826C4.35046 7.91356 5.03281 6.11669 6.37195 4.74609L6.64832 4.47754C8.19864 3.04953 9.9756 2.34475 11.9999 2.34473ZM11.9999 3.05371C10.1857 3.05371 8.61829 3.64105 7.3241 4.81348L7.06824 5.05664C5.71865 6.39887 5.05359 8.12233 5.05359 10.1826C5.05369 11.5135 5.5754 12.9497 6.55066 14.4795L6.75183 14.7861C7.85668 16.4317 9.49736 18.2606 11.6591 20.2715L11.996 20.585L12.3358 20.2764C14.4104 18.3943 15.9966 16.6672 17.079 15.0967L17.2889 14.7852C18.3677 13.138 18.9461 11.5989 18.9462 10.1826C18.9462 8.25101 18.3618 6.61534 17.1766 5.3125L16.9315 5.05664V5.05566C15.5897 3.72177 13.935 3.05375 11.9999 3.05371ZM11.9979 8.70215C12.3183 8.70219 12.5862 8.79636 12.8202 8.99121L12.9188 9.08105C13.175 9.33617 13.2977 9.63248 13.2977 9.99805C13.2977 10.3184 13.2039 10.5852 13.0096 10.8174L12.9198 10.915C12.6649 11.1694 12.3682 11.292 12.0018 11.292C11.6805 11.2919 11.4136 11.198 11.1815 11.0049L11.0848 10.916C10.8313 10.6634 10.708 10.3691 10.7079 10.0029C10.7079 9.68146 10.8022 9.41279 10.996 9.17871L11.0848 9.08105C11.3378 8.82567 11.6324 8.70215 11.9979 8.70215Z" fill="white" stroke="white"/>
</g>
</svg>
