<svg width="24" height="24" viewBox="0 0 24 24" fill="none" xmlns="http://www.w3.org/2000/svg">
<g id="chevron_right">
<path id="Vector" d="M9.38708 6.67285C9.46273 6.67285 9.52512 6.68997 9.58435 6.73145L9.64294 6.78125L14.5873 11.7256C14.6145 11.7528 14.6343 11.777 14.6488 11.7979L14.6781 11.8496V11.8506C14.6929 11.8861 14.7015 11.9259 14.7015 11.9746C14.7015 11.9991 14.6997 12.0214 14.6957 12.042L14.6781 12.0986V12.0996C14.6723 12.1135 14.663 12.1308 14.6488 12.1514L14.5873 12.2236L9.61853 17.1924C9.54076 17.2702 9.47362 17.292 9.39294 17.2891L9.32458 17.2812C9.2802 17.2716 9.23802 17.2529 9.19568 17.2227L9.1322 17.168C9.05408 17.0898 9.02283 17.013 9.02283 16.9121C9.02283 16.8364 9.03991 16.7741 9.08142 16.7148L9.1322 16.6562L13.8138 11.9746L9.10681 7.26758C9.04868 7.20943 9.02159 7.15776 9.01306 7.10156L9.01013 7.04297C9.01271 6.97244 9.03135 6.90909 9.07654 6.8457L9.1322 6.78125C9.21013 6.70344 9.28649 6.67293 9.38708 6.67285Z" fill="white" stroke="white"/>
</g>
</svg>
