<svg width="24" height="24" viewBox="0 0 24 24" fill="none" xmlns="http://www.w3.org/2000/svg">
<g id="keyboard_arrow_down">
<path id="Vector" d="M7.08716 9.02344C7.1628 9.02344 7.2252 9.04055 7.28442 9.08203L7.34302 9.13184L11.6458 13.459L11.9993 13.8145L16.6819 9.13184C16.7403 9.07344 16.7924 9.04648 16.8489 9.03809L16.9065 9.03516C16.9774 9.03775 17.041 9.05688 17.1047 9.10254L17.1682 9.15723C17.2463 9.23531 17.2766 9.31223 17.2766 9.41309C17.2766 9.48853 17.2594 9.55027 17.218 9.60938L17.1682 9.66797L12.2493 14.5869C12.2222 14.614 12.1978 14.6339 12.177 14.6484L12.1243 14.6787C12.0887 14.6935 12.0489 14.7021 12.0002 14.7021C11.9758 14.7021 11.9534 14.6993 11.9329 14.6953L11.8752 14.6787L11.8225 14.6484L11.7512 14.5869L6.80688 9.64355C6.75139 9.58806 6.72338 9.53484 6.71411 9.47168L6.71021 9.40527C6.71305 9.32483 6.7338 9.25759 6.77856 9.19434L6.83228 9.13184C6.9102 9.05403 6.98657 9.02351 7.08716 9.02344Z" fill="#F7FAFC" stroke="#2B6CB0"/>
</g>
</svg>
